<?xml version="1.0" encoding="UTF-8" standalone="no"?>
<!-- Created with Inkscape (http://www.inkscape.org/) -->

<svg
   version="1.1"
   id="svg1"
   width="1024"
   height="1024"
   viewBox="0 0 1024 1024"
   sodipodi:docname="logow.svg"
   inkscape:version="1.3.2 (091e20e, 2023-11-25, custom)"
   xmlns:inkscape="http://www.inkscape.org/namespaces/inkscape"
   xmlns:sodipodi="http://sodipodi.sourceforge.net/DTD/sodipodi-0.dtd"
   xmlns="http://www.w3.org/2000/svg"
   xmlns:svg="http://www.w3.org/2000/svg">
  <defs
     id="defs1" />
  <sodipodi:namedview
     id="namedview1"
     pagecolor="#ffffff"
     bordercolor="#000000"
     borderopacity="0.25"
     inkscape:showpageshadow="2"
     inkscape:pageopacity="0.0"
     inkscape:pagecheckerboard="0"
     inkscape:deskcolor="#d1d1d1"
     inkscape:zoom="0.34057619"
     inkscape:cx="681.19853"
     inkscape:cy="682.66663"
     inkscape:window-width="1440"
     inkscape:window-height="878"
     inkscape:window-x="-6"
     inkscape:window-y="-6"
     inkscape:window-maximized="1"
     inkscape:current-layer="g1" />
  <g
     inkscape:groupmode="layer"
     inkscape:label="Image"
     id="g1">
    <path
       style="fill:#ffffff;fill-opacity:1;stroke-width:1.13117"
       d="m 369.39684,989.17479 c -2.48855,-1.55078 -6.38689,-4.80499 -8.66298,-7.23129 l -4.13833,-4.41153 -0.75341,-192.84282 c -0.41438,-106.06352 -1.02231,-193.11163 -1.35099,-193.44028 -0.32868,-0.32868 -4.28741,3.75177 -8.7972,9.06767 -5.31517,6.26522 -10.54667,14.91663 -14.87154,24.59334 l -6.67193,14.92807 -0.75411,152.3295 c -0.5934,119.86631 -1.16541,153.04939 -2.68408,155.70734 -2.65667,4.64985 -9.5794,7.93382 -16.72444,7.93382 -8.71758,0 -10.4239,-1.07721 -13.80126,-8.71238 -2.98549,-6.74909 -3.0431,-9.69159 -3.01757,-154.14158 0.0168,-95.52795 0.57784,-150.24616 1.59682,-155.75829 5.18409,-28.04333 16.65046,-48.26785 41.29447,-72.83573 15.02408,-14.97767 20.22186,-19.14387 29.62067,-23.74201 16.19621,-7.92358 32.12546,-11.6974 53.63472,-12.70666 37.85513,-1.77626 71.13227,6.81935 98.02076,25.31912 20.09387,13.82495 39.35838,41.61451 42.00288,60.59023 l 0.9984,7.16402 h -4.6672 c -7.31202,0 -18.76938,-6.71639 -30.63117,-17.95623 -18.38022,-17.41647 -38.02573,-28.14909 -64.16391,-35.05365 -14.08047,-3.71943 -43.36506,-4.51749 -56.44731,-1.53829 -7.75825,1.76678 -8.5894,2.32228 -7.87243,5.2615 0.44086,1.8074 0.9507,60.51336 1.13296,130.45771 l 0.33138,127.17148 95.01739,-0.69437 c 100.53401,-0.73479 101.82476,-0.81917 132.72271,-8.67859 41.12718,-10.46144 74.71514,-24.82482 105.57489,-45.14787 42.56083,-28.02879 82.99577,-70.11305 111.56591,-116.11635 20.16509,-32.4697 37.7856,-81.99559 45.61066,-128.19811 2.08646,-12.31911 2.67408,-24.21031 2.64547,-53.54154 -0.0317,-32.68119 -0.50285,-40.31787 -3.53366,-57.31208 -6.07277,-34.05161 -19.83485,-76.29689 -34.14691,-104.82078 -7.00589,-13.96299 -26.7818,-43.42939 -41.02885,-61.13403 -14.67827,-18.24048 -43.72979,-46.56555 -60.98516,-59.46019 -29.54761,-22.08047 -73.40236,-43.94902 -104.68139,-52.2003 -16.76532,-4.4226 -43.64208,-17.72598 -41.91511,-20.74698 0.55714,-0.97462 3.31886,-4.96939 6.13717,-8.87725 2.81828,-3.90785 5.51393,-9.50708 5.99031,-12.442751 1.04765,-6.455828 2.45674,-6.619815 19.41715,-2.259591 56.14616,14.434112 105.08086,38.341222 146.5643,71.604162 17.22854,13.81445 50.55402,47.17819 62.49345,62.56523 17.8367,22.98727 38.61734,55.42158 48.72393,76.04819 19.55396,39.90771 34.26941,92.28777 38.37898,136.6098 4.99104,53.83209 -3.50035,119.32351 -21.60854,166.65749 -5.87252,15.35078 -27.22436,57.97434 -34.75402,69.37779 -2.73869,4.14755 -6.25363,9.67573 -7.81104,12.28481 -3.54576,5.94 -13.76794,20.05004 -21.69408,29.9451 -3.32237,4.14764 -8.65728,10.93462 -11.85562,15.08218 -9.88809,12.82318 -39.22774,40.01302 -59.74211,55.36478 -47.88278,35.83253 -99.6458,57.87777 -167.44428,71.31201 -26.78431,5.30736 -62.97981,7.03911 -139.50968,6.67469 -34.42495,-0.16397 -64.01297,-0.20285 -65.75115,-0.0864 -3.12665,0.20947 -3.16949,0.7753 -4.02044,53.09722 -0.84479,51.94444 -0.92152,52.97529 -4.31178,57.92307 -3.22211,4.70237 -9.96114,9.85575 -12.87155,9.84279 -0.70153,0 -3.3116,-1.2744 -5.80015,-2.82528 z M 227.62485,946.99812 c -9.76969,-5.97322 -9.04928,7.60204 -9.04928,-170.52155 0,-183.8916 -1.20483,-165.79817 13.11592,-196.96709 18.70274,-40.70629 38.34488,-65.83192 69.83577,-89.33183 33.95508,-25.33877 67.43291,-35.16662 113.02598,-33.18017 20.50823,0.89352 30.4167,3.55584 29.97297,8.05345 -1.47172,14.9169 -2.43258,20.23622 -4.05659,22.45719 -1.58864,2.17259 -5.93197,2.81289 -26.45962,3.90064 -26.77697,1.41891 -37.90152,3.02658 -50.18436,7.2525 -19.16833,6.59488 -45.12858,22.61556 -57.55335,35.51754 -20.40063,21.18417 -40.51171,51.45267 -46.77177,70.39456 l -3.67938,11.13322 -0.84817,159.60659 c -0.84597,159.19208 -0.85646,159.61995 -4.04141,164.77333 -6.10274,9.87446 -14.42442,12.34214 -23.30671,6.91162 z m 191.54301,-158.4934 c -9.95421,-0.55509 -16.60224,-1.14579 -14.77342,-1.31268 4.33615,-0.39557 5.43351,-6.16772 4.74199,-24.94299 l -0.52607,-14.28309 43.73817,-0.68775 c 35.25501,-0.55438 45.63957,-1.19846 53.54156,-3.32099 29.75427,-7.99211 49.00749,-24.69708 60.52077,-52.51045 16.51686,-39.90075 16.50293,-77.63324 -0.0434,-117.37913 -8.7096,-20.9214 -23.42715,-41.00206 -54.59785,-74.49343 -60.20446,-64.68672 -87.98856,-109.73456 -98.61106,-159.88342 -5.06909,-23.93117 -1.76067,-61.06311 8.23147,-92.38564 5.43097,-17.02453 10.38911,-26.44477 24.17149,-45.92491 18.18794,-25.70699 28.90661,-35.26902 54.01008,-48.18184 18.81707,-9.67921 24.70148,-10.82411 50.72911,-9.87012 24.3735,0.89336 32.80526,2.61808 48.34123,9.88823 32.82299,15.35972 54.35107,40.81122 64.01362,75.67977 11.26308,40.64416 37.61451,94.73082 65.0708,133.55878 6.50213,9.19519 12.52661,18.57144 13.38758,20.8361 2.45343,6.45299 1.91548,32.35951 -0.86649,41.72732 -3.83382,12.91007 -12.4314,28.62799 -20.01606,36.59303 -20.66256,21.69904 -58.95873,25.4417 -81.8079,7.99508 -9.52601,-7.27369 -14.27951,-14.9299 -21.78886,-35.09406 -5.70397,-15.31645 -7.64703,-18.77645 -14.36385,-25.57774 -11.81081,-11.95937 -23.13646,-16.93837 -47.72389,-20.98044 -29.73189,-4.8878 -46.85626,-12.66009 -71.16744,-32.30103 -9.35649,-7.55909 -23.89609,-26.24812 -29.18653,-37.51608 -2.4534,-5.2254 -4.64966,-9.29757 -4.88058,-9.04928 -0.23093,0.24829 0.18744,6.98025 0.92973,14.9599 3.63916,39.12124 26.71933,80.56792 73.80805,132.54229 6.38811,7.0509 16.52182,18.24937 22.51938,24.8855 37.82932,41.8571 57.27398,73.91624 65.86846,108.59978 3.66803,14.80254 4.10685,19.33317 4.08946,42.22149 -0.0187,24.51168 -0.2294,26.31584 -4.79148,41.01123 -4.96283,15.98624 -18.25107,46.03584 -21.14978,47.8273 -1.57594,0.97401 -6.74834,16.00576 -5.82521,16.92885 0.69734,0.69735 26.82548,-3.46541 34.24502,-5.45595 41.4847,-11.12955 73.36381,-29.77156 105.75698,-61.84365 37.60265,-37.23004 61.69752,-79.56334 73.43339,-129.01843 6.10205,-25.71396 7.82804,-40.4995 7.82804,-67.05758 0,-26.89501 -1.75095,-41.55085 -7.70757,-64.51136 -6.82711,-26.31636 -9.57401,-33.85916 -20.17218,-55.39154 -18.88321,-38.36516 -42.46364,-67.90675 -77.86187,-97.54534 -7.79969,-6.53066 -8.56762,-7.75846 -10.37609,-16.59036 -1.07419,-5.24574 -4.25978,-17.25809 -7.07909,-26.69407 -2.81939,-9.43601 -4.92833,-17.33442 -4.68665,-17.55205 0.77347,-0.69642 26.66779,15.43851 39.27033,24.46961 26.57924,19.04702 60.57446,55.80109 79.22024,85.6494 20.45101,32.73812 32.44228,60.36008 41.62832,95.89094 13.2914,51.41078 11.83508,113.33818 -3.82752,162.76755 -6.98774,22.05233 -17.92916,47.87648 -24.07804,56.8297 -2.38142,3.46753 -4.32988,6.93788 -4.32988,7.71187 0,1.89875 -16.85919,27.25479 -26.62917,40.05 -28.91017,37.86215 -53.53513,59.00604 -94.78194,81.38362 -26.39852,14.32197 -41.29006,19.97236 -72.85926,27.64543 l -28.19103,6.85203 -46.75459,1.29858 c -86.05723,2.39005 -99.44608,2.56668 -117.64059,1.55202 z M 686.40039,436.88743 c 10.48612,-3.96194 17.11298,-16.16516 17.48852,-32.20496 0.17704,-7.56451 -0.3409,-8.8892 -6.6419,-16.98483 -13.30501,-17.09465 -29.73698,-45.30175 -50.26568,-86.28579 -11.18298,-22.32602 -16.54452,-36.28364 -21.92363,-57.07381 -2.41034,-9.31622 -6.25987,-20.17534 -8.55445,-24.1314 -7.22957,-12.46452 -19.37493,-23.13428 -35.67748,-31.34285 -14.40272,-7.25198 -15.21831,-7.46816 -30.16426,-7.99565 -13.11011,-0.46269 -17.05087,-8.2e-4 -26.89053,3.1482 -37.35647,11.95725 -59.73963,53.50563 -47.94466,88.99649 6.74425,20.29335 14.43443,33.5635 26.68701,46.05096 18.5615,18.9173 39.41006,28.67079 67.9135,31.77163 23.98003,2.60874 41.48593,10.75699 58.08823,27.03757 12.14462,11.90925 17.13729,20.00896 21.54052,34.94556 2.08399,7.06928 4.4348,14.4138 5.22403,16.32117 2.9748,7.18961 20.83171,11.63519 31.12078,7.74771 z M 583.56303,262.13639 c -8.1546,-1.3855 -11.92417,-3.65734 -16.90609,-10.18896 -5.79737,-7.60074 -6.00163,-19.42752 -0.43835,-25.38152 8.75536,-9.37027 18.34235,-10.38832 28.05606,-2.97933 7.74777,5.90953 11.53807,14.58015 12.35523,28.26369 l 0.69801,11.68866 -8.866,-0.18878 c -4.87631,-0.10384 -11.58079,-0.65003 -14.89886,-1.21376 z M 138.53338,640.60157 c -13.44091,-1.97259 -14.2211,-2.87726 -14.2211,-16.48991 0,-12.91807 4.31692,-37.41004 9.3236,-52.89735 8.93765,-27.647 30.57724,-61.19472 55.45522,-85.97183 17.9166,-17.84398 20.10674,-19.41412 76.94417,-55.16254 25.84216,-16.25366 47.21481,-37.45458 58.41911,-57.94971 16.3644,-29.93412 23.251,-53.75807 26.81189,-92.75507 2.66633,-29.20011 5.67167,-48.07832 9.7294,-61.11583 1.54337,-4.95884 2.43232,-9.01607 1.97547,-9.01607 -2.59691,0 -11.73781,8.90246 -17.65451,17.19397 -9.80423,13.73941 -13.82552,23.50623 -20.4307,49.62165 -12.15979,48.07704 -19.30381,64.04559 -40.43696,90.38607 -9.31513,11.61045 -26.62529,27.12548 -39.47969,35.38553 -4.56233,2.9317 -19.45289,11.424 -33.09013,18.87178 -31.65478,17.28783 -40.03725,23.04402 -54.18425,37.20794 -12.63434,12.64945 -22.70215,26.09089 -30.26138,40.40166 -7.06457,13.3743 -10.14503,15.90648 -17.03603,14.00378 -5.80003,-1.60146 -12.666853,-8.45221 -14.068097,-14.03518 -2.212426,-8.81506 7.617147,-32.39936 20.820197,-49.95423 21.83325,-29.02968 42.35066,-45.24386 87.85206,-69.42638 17.05371,-9.0635 28.83395,-17.64059 41.98339,-30.56776 18.71344,-18.39713 27.55092,-35.07061 38.14819,-71.97336 11.45109,-39.87602 19.85098,-57.13798 38.28791,-78.6826 14.35161,-16.7707 24.32856,-24.1448 45.33487,-33.50764 10.08209,-4.49377 24.80687,-13.50281 51.92005,-31.76627 8.29517,-5.58764 19.49365,-12.58583 24.88553,-15.55153 13.29562,-7.31306 42.46989,-18.189427 65.89277,-24.565247 33.37938,-9.086055 37.33641,-11.544653 53.37179,-33.161241 11.31392,-15.251818 18.91722,-22.609402 26.74378,-25.879555 6.83998,-2.85792 8.22035,-1.312714 9.04793,10.128345 0.9452,13.067395 -1.99026,26.003683 -9.18459,40.47552 -4.89762,9.851865 -8.54742,14.717875 -16.70221,22.267968 -13.69883,12.68303 -24.15483,17.45071 -49.23421,22.44958 -40.06264,7.98536 -79.02989,26.76966 -98.33995,47.40513 -13.64028,14.57651 -18.1857,21.33761 -23.73242,35.30068 -8.11862,20.43741 -10.62687,33.13983 -13.00108,65.84097 -2.58438,35.59564 -6.81763,55.10223 -17.99227,82.90724 -8.78851,21.86778 -15.33843,33.65352 -28.41166,51.12321 -18.78621,25.10389 -33.70309,37.37488 -72.93617,59.99906 -12.28891,7.08651 -28.11238,17.18565 -35.16329,22.44246 -13.31042,9.92369 -38.96386,36.17334 -48.43636,49.56213 -14.83612,20.96996 -25.54061,48.95929 -32.24876,84.32177 -1.27533,6.72293 -3.15539,12.75495 -4.17793,13.40449 -2.05229,1.3036 -1.74487,1.31027 -12.52358,-0.27163 z M 111.49247,354.93281 c -6.82278,-3.01164 -10.33443,-7.6292 -9.20978,-12.11021 2.037,-8.11602 12.77849,-14.49131 37.13526,-22.04054 36.95725,-11.45464 60.00521,-27.63394 73.12477,-51.3324 l 4.52463,-8.17305 0.75412,-82.9517 0.7541,-82.951704 83.70581,0.33983 c 46.03819,0.186922 92.0998,0.768893 102.35914,1.293283 l 18.65336,0.953444 -6.10797,2.734627 c -7.99358,3.57883 -30.34588,18.33714 -40.92916,27.02384 l -8.36813,6.86851 -27.86253,0.85866 c -15.32439,0.47227 -39.75743,0.43305 -54.29566,-0.0871 -14.53822,-0.52018 -26.73988,-0.71294 -27.1148,-0.42834 -0.37491,0.28457 -0.72477,27.81098 -0.77743,61.16974 -0.11177,70.74672 -0.003,70.11218 -16.12018,94.57606 -17.54534,26.63261 -40.8297,45.18612 -72.71809,57.9435 -20.14078,8.05757 -46.90079,10.9955 -57.50746,6.31361 z"
       id="path9" />
  </g>
</svg>
